<?xml version="1.0" standalone="no"?>
<!DOCTYPE svg PUBLIC "-//W3C//DTD SVG 1.1//EN" "http://www.w3.org/Graphics/SVG/1.1/DTD/svg11.dtd" >
<svg xmlns="http://www.w3.org/2000/svg">
<metadata></metadata>
<defs>
<font id="jet_setregular" horiz-adv-x="1316" >
<font-face units-per-em="2048" ascent="1792" descent="-256" />
<missing-glyph horiz-adv-x="740" />
<glyph horiz-adv-x="2048" />
<glyph horiz-adv-x="2048" />
<glyph unicode="&#xd;" horiz-adv-x="2048" />
<glyph unicode=" "  horiz-adv-x="740" />
<glyph unicode="&#x09;" horiz-adv-x="740" />
<glyph unicode="&#xa0;" horiz-adv-x="740" />
<glyph unicode="!" horiz-adv-x="560" d="M142 64v148q0 26 18 44q18 20 46 20h148q26 0 44 -20q20 -18 20 -44v-148q0 -28 -20 -46q-18 -18 -44 -18h-148q-28 0 -46 18t-18 46zM154 960v768q0 26 18 44q18 20 46 20h128q26 0 44 -20q20 -18 20 -44v-768l-64 -368h-128z" />
<glyph unicode="&#x22;" horiz-adv-x="928" d="M144 1536v192q0 26 18 44q18 20 46 20h128q26 0 44 -20q20 -18 20 -44v-192l-64 -190h-128zM528 1536v192q0 26 18 44q18 20 46 20h128q26 0 44 -20q20 -18 20 -44v-192l-64 -190h-128z" />
<glyph unicode="#" horiz-adv-x="1544" d="M132 448v128q0 26 18 44q18 20 46 20h192v512h-192q-28 0 -46 18t-18 46v128q0 26 18 44q18 20 46 20h192v320q0 26 18 44q18 20 46 20h128q26 0 44 -20q20 -18 20 -44v-320h256v320q0 26 18 44q18 20 46 20h128q26 0 44 -20q20 -18 20 -44v-320h192q26 0 44 -20 q20 -18 20 -44v-128q0 -28 -20 -46q-18 -18 -44 -18h-192v-512h192q26 0 44 -20q20 -18 20 -44v-128q0 -28 -20 -46q-18 -18 -44 -18h-192v-320q0 -28 -20 -46q-18 -18 -44 -18h-128q-28 0 -46 18t-18 46v320h-256v-320q0 -28 -20 -46q-18 -18 -44 -18h-128q-28 0 -46 18 t-18 46v320h-192q-28 0 -46 18t-18 46zM644 640h256v512h-256v-512z" />
<glyph unicode="$" horiz-adv-x="1300" d="M138 256v64q0 26 18 44q18 20 46 20h384v384h-320q-54 0 -92 36q-36 38 -36 92v640q0 52 36 90q38 38 92 38h320v64q0 26 18 44q18 20 46 20q26 0 44 -20q20 -18 20 -44v-64h320q52 0 90 -38t38 -90q0 -54 -38 -92q-38 -36 -90 -36h-320v-384h320q52 0 90 -38t38 -90 v-640q0 -54 -38 -92q-38 -36 -90 -36h-320v-64q0 -28 -20 -46q-18 -18 -44 -18q-28 0 -46 18t-18 46v64h-320q-54 0 -92 36q-36 38 -36 92zM394 1024h192v384h-192v-384zM714 384h192v384h-192v-384z" />
<glyph unicode="%" horiz-adv-x="1390" d="M144 1324v404q0 26 18 44q18 20 46 20h384q26 0 44 -20q20 -18 20 -44v-404q0 -28 -20 -46q-18 -18 -44 -18h-384q-28 0 -46 18t-18 46zM150 0l856 1792h228l-856 -1792h-228zM294 1412h214v232h-214v-232zM736 64v404q0 26 18 44q18 20 46 20h384q26 0 44 -20 q20 -18 20 -44v-404q0 -28 -20 -46q-18 -18 -44 -18h-384q-28 0 -46 18t-18 46zM886 152h214v232h-214v-232z" />
<glyph unicode="&#x26;" horiz-adv-x="1562" d="M140 64v1024q0 26 18 44q18 20 46 20h192l-128 256v320q0 26 18 44q18 20 46 20h896q26 0 44 -20q20 -18 20 -44v-384q0 -28 -20 -46q-18 -18 -44 -18h-128q-28 0 -46 18t-18 46v192h-512v-128l576 -1152h64v512h-64q-28 0 -46 18t-18 46v128q0 26 18 44q18 20 46 20h256 q26 0 44 -20q20 -18 20 -44v-960h-192l64 -128h-256l-64 128h-768q-28 0 -46 18t-18 46zM396 256h448l-320 640h-128v-640z" />
<glyph unicode="'" horiz-adv-x="408" d="M76 1536v192q0 26 18 44q18 20 46 20h128q26 0 44 -20q20 -18 20 -44v-192l-64 -208h-128z" />
<glyph unicode="(" horiz-adv-x="786" d="M132 256v1280l256 512h256l-256 -512v-1280l256 -512h-256z" />
<glyph unicode=")" horiz-adv-x="786" d="M142 -256l256 512v1280l-256 512h256l256 -512v-1280l-256 -512h-256z" />
<glyph unicode="*" horiz-adv-x="776" d="M132 1408v64l128 64l-128 64v64h128v128h64l64 -128l64 128h64v-128h128v-64l-128 -64l128 -64v-64h-128v-128h-64l-64 128l-64 -128h-64v128h-128z" />
<glyph unicode="+" horiz-adv-x="1140" d="M122 768v128q0 26 18 44q18 20 46 20h256v256q0 26 18 44q18 20 46 20h128q26 0 44 -20q20 -18 20 -44v-256h256q26 0 44 -20q20 -18 20 -44v-128q0 -28 -20 -46q-18 -18 -44 -18h-256v-256q0 -28 -20 -46q-18 -18 -44 -18h-128q-28 0 -46 18t-18 46v256h-256 q-28 0 -46 18t-18 46z" />
<glyph unicode="," horiz-adv-x="552" d="M132 64v148q0 26 18 44q18 20 46 20h148q26 0 44 -20q20 -18 20 -44v-404q0 -26 -20 -44q-18 -20 -44 -20q-88 0 -106 20q-18 18 -18 44v192h-24q-28 0 -46 18t-18 46z" />
<glyph unicode="-" horiz-adv-x="930" d="M146 768v128q0 26 18 44q18 20 46 20h512q26 0 44 -20q20 -18 20 -44v-128q0 -28 -20 -46q-18 -18 -44 -18h-512q-28 0 -46 18t-18 46z" />
<glyph unicode="." horiz-adv-x="564" d="M144 64v148q0 26 18 44q18 20 46 20h148q26 0 44 -20q20 -18 20 -44v-148q0 -28 -20 -46q-18 -18 -44 -18h-148q-28 0 -46 18t-18 46z" />
<glyph unicode="/" horiz-adv-x="1308" d="M112 0l856 1792h228l-856 -1792h-228z" />
<glyph unicode="0" d="M146 128v1536q0 52 36 88q36 40 92 40h768q52 0 88 -40q40 -36 40 -88v-1536q0 -56 -40 -92q-36 -36 -88 -36h-768q-56 0 -92 36t-36 92zM402 256h512v788l-512 -512v-276zM402 748l512 512v276h-512v-788z" />
<glyph unicode="1" horiz-adv-x="722" d="M140 1600v128q0 26 18 44q18 20 46 20h296q26 0 44 -20q20 -18 20 -44v-1728h-256v1536h-104q-28 0 -46 18t-18 46z" />
<glyph unicode="2" horiz-adv-x="1312" d="M144 64v704l256 256h512v512h-704q-28 0 -48 16q-16 20 -16 48v128q0 24 16 44q20 20 48 20h832q52 0 88 -40q40 -36 40 -88v-768q0 -56 -40 -92q-36 -36 -88 -36h-512l-128 -128v-384h704q24 0 44 -20t20 -44v-128q0 -28 -20 -48q-20 -16 -44 -16h-896q-28 0 -48 16 q-16 20 -16 48z" />
<glyph unicode="3" horiz-adv-x="1310" d="M140 64v128q0 24 16 44q20 20 48 20h704v512h-448q-28 0 -48 16q-16 20 -16 48v128q0 24 16 44q20 20 48 20h448v512h-704q-28 0 -48 16q-16 20 -16 48v128q0 24 16 44q20 20 48 20h832q52 0 88 -40q40 -36 40 -88v-1536q0 -56 -40 -92q-36 -36 -88 -36h-832 q-28 0 -48 16q-16 20 -16 48z" />
<glyph unicode="4" horiz-adv-x="1292" d="M122 896v832q0 26 18 44q18 20 46 20h128q26 0 44 -20q20 -18 20 -44v-704h512v704q0 26 18 44q18 20 46 20h128q26 0 44 -20q20 -18 20 -44v-1664q0 -28 -20 -46q-18 -18 -44 -18h-128q-28 0 -46 18t-18 46v704h-640q-54 0 -92 36q-36 38 -36 92z" />
<glyph unicode="5" horiz-adv-x="1312" d="M144 64v128q0 24 16 44q20 20 48 20h704v384l-128 128h-576q-28 0 -48 16q-16 20 -16 48v896q0 24 16 44q20 20 48 20h896q24 0 44 -20t20 -44v-128q0 -28 -20 -48q-20 -16 -44 -16h-704v-512h512l256 -256v-640q0 -56 -40 -92q-36 -36 -88 -36h-832q-28 0 -48 16 q-16 20 -16 48z" />
<glyph unicode="6" horiz-adv-x="1314" d="M146 128v1536l128 128h832q24 0 44 -20t20 -44v-128q0 -28 -20 -48q-20 -16 -44 -16h-704v-512h640l128 -128v-768q0 -56 -40 -92q-36 -36 -88 -36h-768q-56 0 -92 36t-36 92zM402 256h512v512h-512v-512z" />
<glyph unicode="7" horiz-adv-x="1280" d="M126 1600v128q0 24 16 44q20 20 48 20h896q24 0 44 -20t20 -44v-512l-384 -384v-768q0 -28 -20 -48q-20 -16 -44 -16h-128q-28 0 -48 16q-16 20 -16 48v832l384 384v256h-704q-28 0 -48 16q-16 20 -16 48z" />
<glyph unicode="8" d="M146 128v1536q0 52 36 88q36 40 92 40h768q52 0 88 -40q40 -36 40 -88v-1536q0 -56 -40 -92q-36 -36 -88 -36h-768q-56 0 -92 36t-36 92zM402 256h512v512h-512v-512zM402 1024h512v512h-512v-512z" />
<glyph unicode="9" horiz-adv-x="1314" d="M144 64v128q0 24 16 44q20 20 48 20h704v512h-640l-128 128v768l128 128h768q52 0 88 -40q40 -36 40 -88v-1536q0 -56 -40 -92q-36 -36 -88 -36h-832q-28 0 -48 16q-16 20 -16 48zM400 1024h512v512h-512v-512z" />
<glyph unicode=":" horiz-adv-x="566" d="M146 64v148q0 26 18 44q18 20 46 20h148q26 0 44 -20q20 -18 20 -44v-148q0 -28 -20 -46q-18 -18 -44 -18h-148q-28 0 -46 18t-18 46zM146 832v148q0 26 18 44q18 20 46 20h148q26 0 44 -20q20 -18 20 -44v-148q0 -28 -20 -46q-18 -18 -44 -18h-148q-28 0 -46 18t-18 46z " />
<glyph unicode=";" horiz-adv-x="554" d="M134 64v148q0 26 18 44q18 20 46 20h148q26 0 44 -20q20 -18 20 -44v-468h-168v256h-44q-28 0 -46 18t-18 46zM134 832v148q0 26 18 44q18 20 46 20h148q26 0 44 -20q20 -18 20 -44v-148q0 -28 -20 -46q-18 -18 -44 -18h-148q-28 0 -46 18t-18 46z" />
<glyph unicode="&#x3c;" horiz-adv-x="896" d="M110 640v256l640 640v-384l-384 -384l384 -384v-384z" />
<glyph unicode="=" horiz-adv-x="1188" d="M146 576v108q0 26 18 44q18 20 46 20h768q26 0 44 -20q20 -18 20 -44v-108q0 -28 -20 -46q-18 -18 -44 -18h-768q-28 0 -46 18t-18 46zM146 980v108q0 26 18 44q18 20 46 20h768q26 0 44 -20q20 -18 20 -44v-108q0 -28 -20 -46q-18 -18 -44 -18h-768q-28 0 -46 18t-18 46 z" />
<glyph unicode="&#x3e;" horiz-adv-x="896" d="M146 0v384l384 384l-384 384v384l640 -640v-256z" />
<glyph unicode="?" horiz-adv-x="1284" d="M128 1344v384q0 26 18 44q18 20 46 20h896q26 0 44 -20q20 -18 20 -44v-896q0 -28 -20 -46q-18 -18 -44 -18h-320v-192q0 -28 -20 -46q-18 -18 -44 -18h-128q-28 0 -46 18t-18 46v384q0 26 18 44q18 20 46 20h320v512h-512v-192q0 -28 -20 -46q-18 -18 -44 -18h-128 q-28 0 -46 18t-18 46zM500 64v148q0 26 18 44q18 20 46 20h148q26 0 44 -20q20 -18 20 -44v-148q0 -28 -20 -46q-18 -18 -44 -18h-148q-28 0 -46 18t-18 46z" />
<glyph unicode="@" horiz-adv-x="2104" d="M146 -140v1818q0 46 32 80q34 34 82 34h1590q46 0 80 -34t34 -80v-1364q0 -48 -34 -82q-34 -32 -80 -32h-1154l814 228h228v1136h-1364v-1590h1078q24 0 40 -16q18 -16 18 -42v-112q0 -24 -18 -40q-16 -18 -40 -18h-1192q-48 0 -82 34q-32 34 -32 80zM596 312v458 q0 46 34 78q32 36 82 36h572v230h-630q-24 0 -42 14q-16 18 -16 42v114q0 22 16 40q18 18 42 18h800q22 0 40 -18t18 -40v-1028q0 -26 -18 -44q-18 -14 -40 -14h-742q-50 0 -82 32q-34 32 -34 82zM826 426h458v230h-458v-230z" />
<glyph unicode="A" d="M146 64v1664q0 24 16 44q20 20 48 20h896q24 0 44 -20t20 -44v-1664q0 -28 -20 -48q-20 -16 -44 -16h-128q-28 0 -48 16q-16 20 -16 48v704h-512v-704q0 -28 -20 -48q-20 -16 -44 -16h-128q-28 0 -48 16q-16 20 -16 48zM402 1024h512v512h-512v-512z" />
<glyph unicode="B" d="M146 64v1664q0 24 16 44q20 20 48 20h832q52 0 88 -40q40 -36 40 -88v-512l-128 -256l128 -256v-512q0 -56 -40 -92q-36 -36 -88 -36h-832q-28 0 -48 16q-16 20 -16 48zM402 256h512v384l-64 128h-448v-512zM402 1024h448l64 128v384h-512v-512z" />
<glyph unicode="C" horiz-adv-x="1310" d="M146 128v1536q0 52 36 88q36 40 92 40h832q24 0 44 -20t20 -44v-128q0 -28 -20 -48q-20 -16 -44 -16h-704v-1280h704q24 0 44 -20t20 -44v-128q0 -28 -20 -48q-20 -16 -44 -16h-832q-56 0 -92 36t-36 92z" />
<glyph unicode="D" horiz-adv-x="1314" d="M146 64v1664q0 26 18 44q18 20 46 20h768l192 -192v-1408l-192 -192h-768q-28 0 -46 18t-18 46zM402 256h448l64 64v1152l-64 64h-448v-1280z" />
<glyph unicode="E" horiz-adv-x="1310" d="M146 64v1664q0 26 18 44q18 20 46 20h896q26 0 44 -20q20 -18 20 -44v-128q0 -28 -20 -46q-18 -18 -44 -18h-704v-512h576q26 0 44 -20q20 -18 20 -44v-128q0 -28 -20 -46q-18 -18 -44 -18h-576v-512h704q26 0 44 -20q20 -18 20 -44v-128q0 -28 -20 -46q-18 -18 -44 -18 h-896q-28 0 -46 18t-18 46z" />
<glyph unicode="F" horiz-adv-x="1282" d="M146 64v1664q0 26 18 44q18 20 46 20h896q26 0 44 -20q20 -18 20 -44v-128q0 -28 -20 -46q-18 -18 -44 -18h-704v-512h576q26 0 44 -20q20 -18 20 -44v-128q0 -28 -20 -46q-18 -18 -44 -18h-576v-704q0 -28 -20 -46q-18 -18 -44 -18h-128q-28 0 -46 18t-18 46z" />
<glyph unicode="G" horiz-adv-x="1314" d="M146 64v1664q0 26 18 44q18 20 46 20h896q26 0 44 -20q20 -18 20 -44v-128q0 -28 -20 -46q-18 -18 -44 -18h-704v-1280h512v512h-216q-28 0 -46 18t-18 46v128q0 26 18 44q18 20 46 20h408q26 0 44 -20q20 -18 20 -44v-896q0 -28 -20 -46q-18 -18 -44 -18h-896 q-28 0 -46 18t-18 46z" />
<glyph unicode="H" d="M146 64v1664q0 26 18 44q18 20 46 20h128q26 0 44 -20q20 -18 20 -44v-704h512v704q0 26 18 44q18 20 46 20h128q26 0 44 -20q20 -18 20 -44v-1664q0 -28 -20 -46q-18 -18 -44 -18h-128q-28 0 -46 18t-18 46v704h-512v-704q0 -28 -20 -46q-18 -18 -44 -18h-128 q-28 0 -46 18t-18 46z" />
<glyph unicode="I" horiz-adv-x="546" d="M146 64v1664q0 26 18 44q18 20 46 20h128q26 0 44 -20q20 -18 20 -44v-1664q0 -28 -20 -46q-18 -18 -44 -18h-128q-28 0 -46 18t-18 46z" />
<glyph unicode="J" horiz-adv-x="1026" d="M112 64v128q0 24 16 44q20 20 48 20h448v1472q0 24 16 44q20 20 48 20h128q24 0 44 -20t20 -44v-1600q0 -56 -40 -92q-36 -36 -88 -36h-576q-28 0 -48 16q-16 20 -16 48z" />
<glyph unicode="K" d="M146 64v1664q0 24 16 44q20 20 48 20h128q24 0 44 -20t20 -44v-748q492 772 508 792q20 20 48 20h148q24 0 44 -20t20 -44l-532 -832l532 -832q0 -28 -20 -48q-20 -16 -44 -16h-148q-28 0 -48 16q-16 20 -508 796v-748q0 -28 -20 -48q-20 -16 -44 -16h-128q-28 0 -48 16 q-16 20 -16 48z" />
<glyph unicode="L" horiz-adv-x="1026" d="M146 64v1664q0 24 16 44q20 20 48 20h128q24 0 44 -20t20 -44v-1472h448q24 0 44 -20t20 -44v-128q0 -28 -20 -48q-20 -16 -44 -16h-640q-28 0 -48 16q-16 20 -16 48z" />
<glyph unicode="M" horiz-adv-x="1572" d="M146 64v1664q0 26 18 44q18 20 46 20h1152q26 0 44 -20q20 -18 20 -44v-1664q0 -28 -20 -46q-18 -18 -44 -18h-128q-28 0 -46 18t-18 46v1472h-256v-704q0 -28 -20 -46q-18 -18 -44 -18h-128q-28 0 -46 18t-18 46v704h-256v-1472q0 -28 -20 -46q-18 -18 -44 -18h-128 q-28 0 -46 18t-18 46z" />
<glyph unicode="N" d="M146 64v1664q0 24 16 44q20 20 48 20h832q52 0 88 -40q40 -36 40 -88v-1600q0 -28 -20 -48q-20 -16 -44 -16h-128q-28 0 -48 16q-16 20 -16 48v1472h-512v-1472q0 -28 -20 -48q-20 -16 -44 -16h-128q-28 0 -48 16q-16 20 -16 48z" />
<glyph unicode="O" d="M146 128v1536q0 52 36 90q38 38 92 38h768q52 0 90 -38t38 -90v-1536q0 -54 -38 -92q-38 -36 -90 -36h-768q-54 0 -92 36q-36 38 -36 92zM402 256h512v1280h-512v-1280z" />
<glyph unicode="P" horiz-adv-x="1292" d="M146 64v1664q0 24 16 44q20 20 48 20h832q52 0 88 -40q40 -36 40 -88v-768q0 -56 -40 -92q-36 -36 -88 -36h-640v-704q0 -28 -20 -48q-20 -16 -44 -16h-128q-28 0 -48 16q-16 20 -16 48zM402 1024h512v512h-512v-512z" />
<glyph unicode="Q" horiz-adv-x="1314" d="M146 128v1536q0 52 36 88q36 40 92 40h768q52 0 88 -40q40 -36 40 -88v-1536q0 -56 -40 -92q-36 -36 -88 -36h-276v-64q0 -24 -20 -44t-44 -20h-88q-28 0 -48 20q-16 20 -16 44v64h-276q-56 0 -92 36t-36 92zM402 256h148v448q0 24 16 44q20 20 48 20h88q24 0 44 -20 t20 -44v-448h148v1280h-512v-1280z" />
<glyph unicode="R" horiz-adv-x="1314" d="M146 64v1664q0 24 16 44q20 20 48 20h832q52 0 88 -40q40 -36 40 -88v-768q0 -56 -40 -92q-36 -36 -88 -36h-270l398 -640v-64q0 -28 -20 -48q-20 -16 -44 -16h-158l-466 768h-80v-704q0 -28 -20 -48q-20 -16 -44 -16h-128q-28 0 -48 16q-16 20 -16 48zM402 1024h512v512 h-512v-512z" />
<glyph unicode="S" horiz-adv-x="1312" d="M144 64v128q0 26 18 44q18 20 46 20h704v512h-640q-54 0 -92 36q-36 38 -36 92v768q0 52 36 90q38 38 92 38h832q26 0 44 -20q20 -18 20 -44v-128q0 -28 -20 -46q-18 -18 -44 -18h-704v-512h640q52 0 90 -38t38 -90v-768q0 -54 -38 -92q-38 -36 -90 -36h-832 q-28 0 -46 18t-18 46z" />
<glyph unicode="T" horiz-adv-x="1276" d="M126 1600v128q0 26 18 44q18 20 46 20h896q26 0 44 -20q20 -18 20 -44v-128q0 -28 -20 -46q-18 -18 -44 -18h-320v-1472q0 -28 -20 -46q-18 -18 -44 -18h-128q-28 0 -46 18t-18 46v1472h-320q-28 0 -46 18t-18 46z" />
<glyph unicode="U" d="M146 128v1600q0 24 16 44q20 20 48 20h128q24 0 44 -20t20 -44v-1472h512v1472q0 24 16 44q20 20 48 20h128q24 0 44 -20t20 -44v-1600q0 -56 -40 -92q-36 -36 -88 -36h-768q-56 0 -92 36t-36 92z" />
<glyph unicode="V" horiz-adv-x="1288" d="M132 1728q0 26 16 44q20 20 48 20h144q26 0 44 -20q20 -18 30 -44l140 -1452h180l140 1452q10 26 28 44q18 20 46 20h144q26 0 46 -20q18 -18 18 -44l-194 -1666l-66 -62h-504l-66 62zM326 62l66 -62q-28 0 -48 16q-16 20 -18 46zM898 0q28 0 48 16q16 20 16 46z" />
<glyph unicode="W" horiz-adv-x="1572" d="M146 64v1664q0 26 18 44q18 20 46 20h128q26 0 44 -20q20 -18 20 -44v-1472h256v960q0 26 18 44q18 20 46 20h128q26 0 44 -20q20 -18 20 -44v-960h256v1472q0 26 18 44q18 20 46 20h128q26 0 44 -20q20 -18 20 -44v-1664q0 -28 -20 -46q-18 -18 -44 -18h-1152 q-28 0 -46 18t-18 46z" />
<glyph unicode="X" horiz-adv-x="1312" d="M144 64v64l374 768l-374 768v64q0 26 18 44q18 20 46 20h150l298 -614l298 614h150q26 0 44 -20q20 -18 20 -44v-64l-374 -768l374 -768v-64q0 -28 -20 -46q-18 -18 -44 -18h-150l-298 614l-298 -614h-150q-28 0 -46 18t-18 46z" />
<glyph unicode="Y" horiz-adv-x="1280" d="M128 1664v64q0 26 18 44q18 20 46 20h146l302 -640l302 640h146q26 0 44 -20q20 -18 20 -44v-64l-384 -828v-772q0 -28 -20 -46q-18 -18 -44 -18h-128q-28 0 -46 18t-18 46v772z" />
<glyph unicode="Z" horiz-adv-x="1308" d="M142 64v192l720 1280h-656q-28 0 -46 18t-18 46v128q0 26 18 44q18 20 46 20h896q26 0 44 -20q20 -18 20 -44v-192l-720 -1280h656q26 0 44 -20q20 -18 20 -44v-128q0 -28 -20 -46q-18 -18 -44 -18h-896q-28 0 -46 18t-18 46z" />
<glyph unicode="[" horiz-adv-x="732" d="M146 -192v2176q0 26 18 44q18 20 46 20h320q26 0 44 -20q20 -18 20 -44v-128q0 -28 -20 -46q-18 -18 -44 -18h-148v-1792h148q26 0 44 -18q20 -18 20 -46v-128q0 -26 -20 -44q-18 -20 -44 -20h-320q-28 0 -46 20q-18 18 -18 44z" />
<glyph unicode="\" horiz-adv-x="1308" d="M112 1792h228l856 -1792h-228z" />
<glyph unicode="]" horiz-adv-x="726" d="M138 -64q0 28 20 46q18 18 44 18h148v1792h-148q-26 0 -44 18q-20 18 -20 46v128q0 26 20 44q18 20 44 20h320q28 0 46 -20q18 -18 18 -44v-2176q0 -26 -18 -44q-18 -20 -46 -20h-320q-26 0 -44 20q-20 18 -20 44v128z" />
<glyph unicode="^" horiz-adv-x="944" d="M132 1368l212 424h256l212 -424h-168l-128 236h-88l-128 -236h-168z" />
<glyph unicode="_" d="M146 -98q0 62 18 80t46 18h896q26 0 44 -18q20 -18 20 -80q0 -52 -20 -70q-18 -20 -44 -20h-896q-28 0 -46 20q-18 18 -18 70z" />
<glyph unicode="`" horiz-adv-x="576" d="M122 1664v64q0 26 18 44q18 20 46 20h128l128 -256v-128h-64z" />
<glyph unicode="a" d="M146 128v512q0 52 36 88q36 40 92 40h640v256h-704q-28 0 -48 16q-16 20 -16 48v128q0 24 16 44q20 20 48 20h896q24 0 44 -20t20 -44v-1152q0 -28 -20 -48q-20 -16 -44 -16h-832q-56 0 -92 36t-36 92zM402 256h512v256h-512v-256z" />
<glyph unicode="b" horiz-adv-x="1298" d="M146 64v1664q0 24 16 44q20 20 48 20h128q24 0 44 -20t20 -44v-448h640q52 0 88 -40q40 -36 40 -88v-1024q0 -56 -40 -92q-36 -36 -88 -36h-832q-28 0 -48 16q-16 20 -16 48zM402 256h512v768h-512v-768z" />
<glyph unicode="c" d="M146 128v1024q0 52 36 88q36 40 92 40h832q24 0 44 -20t20 -44v-128q0 -28 -20 -48q-20 -16 -44 -16h-704v-768h704q24 0 44 -20t20 -44v-128q0 -28 -20 -48q-20 -16 -44 -16h-832q-56 0 -92 36t-36 92z" />
<glyph unicode="d" horiz-adv-x="1300" d="M130 128v1024q0 52 36 88q36 40 92 40h640v448q0 24 16 44q20 20 48 20h128q24 0 44 -20t20 -44v-1664q0 -28 -20 -48q-20 -16 -44 -16h-832q-56 0 -92 36t-36 92zM386 256h512v768h-512v-768z" />
<glyph unicode="e" d="M146 64v1152q0 24 16 44q20 20 48 20h832q52 0 88 -40q40 -36 40 -88v-512q0 -56 -40 -92q-36 -36 -88 -36h-640v-256h704q24 0 44 -20t20 -44v-128q0 -28 -20 -48q-20 -16 -44 -16h-896q-28 0 -48 16q-16 20 -16 48zM402 768h512v256h-512v-256z" />
<glyph unicode="f" horiz-adv-x="970" d="M100 1088v128q0 24 16 44q20 20 48 20h64v384q0 52 36 88q36 40 92 40h448q24 0 44 -20t20 -44v-128q0 -28 -20 -48q-20 -16 -44 -16h-320v-256h320q24 0 44 -20t20 -44v-128q0 -28 -20 -48q-20 -16 -44 -16h-320v-960q0 -28 -20 -48q-20 -16 -44 -16h-128q-28 0 -48 16 q-16 20 -16 48v960h-64q-28 0 -48 16q-16 20 -16 48z" />
<glyph unicode="g" d="M146 -192q0 28 16 48q20 16 48 16h704v256h-640q-56 0 -92 36t-36 92v896q0 52 36 88q36 40 92 40h832q24 0 44 -20t20 -44v-1536q0 -24 -20 -44t-44 -20h-896q-28 0 -48 20q-16 20 -16 44v128zM402 384h512v640h-512v-640z" />
<glyph unicode="h" horiz-adv-x="1298" d="M146 64v1664q0 24 16 44q20 20 48 20h128q24 0 44 -20t20 -44v-448h640q52 0 88 -40q40 -36 40 -88v-1088q0 -28 -20 -48q-20 -16 -44 -16h-128q-28 0 -48 16q-16 20 -16 48v960h-512v-960q0 -28 -20 -48q-20 -16 -44 -16h-128q-28 0 -48 16q-16 20 -16 48z" />
<glyph unicode="i" horiz-adv-x="542" d="M144 64v1152q0 26 18 44q18 20 46 20h128q26 0 44 -20q20 -18 20 -44v-1152q0 -28 -20 -46q-18 -18 -44 -18h-128q-28 0 -46 18t-18 46zM144 1600v128q0 26 18 44q18 20 46 20h128q26 0 44 -20q20 -18 20 -44v-128q0 -28 -20 -46q-18 -18 -44 -18h-128q-28 0 -46 18 t-18 46z" />
<glyph unicode="j" horiz-adv-x="516" d="M6 -192q0 28 16 48q20 16 48 16h64v1344q0 24 16 44q20 20 48 20h128q24 0 44 -20t20 -44v-1472q0 -52 -40 -88q-36 -40 -88 -40h-192q-28 0 -48 20q-16 20 -16 44v128zM134 1600v128q0 24 16 44q20 20 48 20h128q24 0 44 -20t20 -44v-128q0 -28 -20 -48q-20 -16 -44 -16 h-128q-28 0 -48 16q-16 20 -16 48z" />
<glyph unicode="k" horiz-adv-x="1288" d="M146 64v1664q0 24 16 44q20 20 48 20h128q24 0 44 -20t20 -44v-1024l536 576h168q24 0 44 -20t20 -44v-64l-472 -512l472 -512v-64q0 -28 -20 -48q-20 -16 -44 -16h-168l-536 576v-512q0 -28 -20 -48q-20 -16 -44 -16h-128q-28 0 -48 16q-16 20 -16 48z" />
<glyph unicode="l" horiz-adv-x="624" d="M146 64v1664q0 26 18 44q18 20 46 20h128q26 0 44 -20q20 -18 20 -44v-1472h64q26 0 44 -20q20 -18 20 -44v-128q0 -28 -20 -46q-18 -18 -44 -18h-256q-28 0 -46 18t-18 46z" />
<glyph unicode="m" horiz-adv-x="1572" d="M146 64v1152q0 24 16 44q20 20 48 20h1152q24 0 44 -20t20 -44v-1152q0 -28 -20 -48q-20 -16 -44 -16h-128q-28 0 -48 16q-16 20 -16 48v960h-256v-704q0 -28 -20 -48q-20 -16 -44 -16h-128q-28 0 -48 16q-16 20 -16 48v704h-256v-960q0 -28 -20 -48q-20 -16 -44 -16 h-128q-28 0 -48 16q-16 20 -16 48z" />
<glyph unicode="n" d="M146 64v1152q0 24 16 44q20 20 48 20h832q52 0 88 -40q40 -36 40 -88v-1088q0 -28 -20 -48q-20 -16 -44 -16h-128q-28 0 -48 16q-16 20 -16 48v960h-512v-960q0 -28 -20 -48q-20 -16 -44 -16h-128q-28 0 -48 16q-16 20 -16 48z" />
<glyph unicode="o" d="M146 128v1024q0 52 36 88q36 40 92 40h768q52 0 88 -40q40 -36 40 -88v-1024q0 -56 -40 -92q-36 -36 -88 -36h-768q-56 0 -92 36t-36 92zM402 256h512v768h-512v-768z" />
<glyph unicode="p" horiz-adv-x="1304" d="M146 -320v1536q0 24 16 44q20 20 48 20h832q52 0 88 -40q40 -36 40 -88v-1024q0 -56 -40 -92q-36 -36 -88 -36h-640v-320q0 -24 -20 -44t-44 -20h-128q-28 0 -48 20q-16 20 -16 44zM402 256h512v768h-512v-768z" />
<glyph unicode="q" horiz-adv-x="1306" d="M136 128v1024q0 52 36 88q36 40 92 40h832q24 0 44 -20t20 -44v-1536q0 -24 -20 -44t-44 -20h-128q-28 0 -48 20q-16 20 -16 44v320h-640q-56 0 -92 36t-36 92zM392 256h512v768h-512v-768z" />
<glyph unicode="r" horiz-adv-x="1116" d="M146 64v1088q0 52 36 88q36 40 92 40h664q24 0 44 -20t20 -44v-128q0 -28 -20 -48q-20 -16 -44 -16h-536v-960q0 -28 -20 -48q-20 -16 -44 -16h-128q-28 0 -48 16q-16 20 -16 48z" />
<glyph unicode="s" d="M146 64v128q0 24 16 44q20 20 48 20h704v256h-640q-56 0 -92 36t-36 92v512q0 52 36 88q36 40 92 40h832q24 0 44 -20t20 -44v-128q0 -28 -20 -48q-20 -16 -44 -16h-704v-256h640q52 0 88 -40q40 -36 40 -88v-512q0 -56 -40 -92q-36 -36 -88 -36h-832q-28 0 -48 16 q-16 20 -16 48z" />
<glyph unicode="t" horiz-adv-x="968" d="M100 1088v128q0 24 16 44q20 20 48 20h192v448q0 24 16 44q20 20 48 20h128q24 0 44 -20t20 -44v-448h192q24 0 44 -20t20 -44v-128q0 -28 -20 -48q-20 -16 -44 -16h-192v-768h64q24 0 44 -20t20 -44v-128q0 -28 -20 -48q-20 -16 -44 -16h-192q-56 0 -92 36t-36 92v896 h-192q-28 0 -48 16q-16 20 -16 48z" />
<glyph unicode="u" d="M146 128v1088q0 24 16 44q20 20 48 20h128q24 0 44 -20t20 -44v-960h512v960q0 24 16 44q20 20 48 20h128q24 0 44 -20t20 -44v-1088q0 -56 -40 -92q-36 -36 -88 -36h-768q-56 0 -92 36t-36 92z" />
<glyph unicode="v" horiz-adv-x="1288" d="M138 1214q-2 11 -2 20q0 24 12 32q20 14 48 14h146q26 0 44 -14q20 -12 36 -52l148 -948h148l148 948q16 40 34 52q18 14 46 14h146q26 0 46 -14q14 -9 14 -34q0 -8 -2 -18l-218 -1152l-64 -62h-448l-64 62zM356 62l64 -62zM356 62l64 -62q-28 0 -48 16q-12 16 -16 46z M868 0q28 0 48 16q12 16 16 46z" />
<glyph unicode="w" horiz-adv-x="1572" d="M146 64v1152q0 24 16 44q20 20 48 20h128q24 0 44 -20t20 -44v-960h256v704q0 24 16 44q20 20 48 20h128q24 0 44 -20t20 -44v-704h256v960q0 24 16 44q20 20 48 20h128q24 0 44 -20t20 -44v-1152q0 -28 -20 -48q-20 -16 -44 -16h-1152q-28 0 -48 16q-16 20 -16 48z" />
<glyph unicode="x" horiz-adv-x="1284" d="M144 46v46l318 548l-318 548v46q0 18 18 32q16 14 44 14h190l246 -424l246 424h190q26 0 44 -14t18 -32v-46l-318 -548l318 -548v-46q0 -20 -18 -34q-18 -12 -44 -12h-190l-246 422l-246 -422h-190q-28 0 -44 12q-18 14 -18 34z" />
<glyph unicode="y" d="M146 -192q0 28 16 48q20 16 48 16h704v256h-640q-56 0 -92 36t-36 92v960q0 24 16 44q20 20 48 20h128q24 0 44 -20t20 -44v-832h512v832q0 24 16 44q20 20 48 20h128q24 0 44 -20t20 -44v-1536q0 -24 -20 -44t-44 -20h-896q-28 0 -48 20q-16 20 -16 44v128z" />
<glyph unicode="z" d="M146 64v192l682 768h-618q-28 0 -46 18t-18 46v128q0 26 18 44q18 20 46 20h896q26 0 44 -20q20 -18 20 -44v-192l-682 -768h618q26 0 44 -20q20 -18 20 -44v-128q0 -28 -20 -46q-18 -18 -44 -18h-896q-28 0 -46 18t-18 46z" />
<glyph unicode="{" horiz-adv-x="958" d="M114 896q0 52 36 90q38 38 92 38h128v960q0 26 18 44q18 20 46 20h320q26 0 44 -20q20 -18 20 -44v-128q0 -28 -20 -46q-18 -18 -44 -18h-148v-1792h148q26 0 44 -18q20 -18 20 -46v-128q0 -26 -20 -44q-18 -20 -44 -20h-320q-28 0 -46 20q-18 18 -18 44v960h-128 q-54 0 -92 36q-36 38 -36 92z" />
<glyph unicode="|" horiz-adv-x="498" d="M140 -176v2164q0 26 18 44q18 20 92 20q70 0 88 -20q20 -18 20 -44v-2164q0 -28 -20 -46q-18 -18 -88 -18q-74 0 -92 18t-18 46z" />
<glyph unicode="}" horiz-adv-x="958" d="M140 -64q0 28 20 46q18 18 44 18h148v1792h-148q-26 0 -44 18q-20 18 -20 46v128q0 26 20 44q18 20 44 20h320q28 0 46 -20q18 -18 18 -44v-960h128q54 0 92 -38q36 -38 36 -90q0 -54 -36 -92q-38 -36 -92 -36h-128v-960q0 -26 -18 -44q-18 -20 -46 -20h-320 q-26 0 -44 20q-20 18 -20 44v128z" />
<glyph unicode="~" horiz-adv-x="1026" d="M130 532v196q0 26 18 44q18 20 46 20h468v84q0 26 18 44q18 20 46 20h108q26 0 44 -20q20 -18 20 -44v-196q0 -28 -20 -46q-18 -18 -44 -18h-468v-84q0 -28 -20 -46q-18 -18 -44 -18h-108q-28 0 -46 18t-18 46z" />
<glyph unicode="&#xa1;" horiz-adv-x="560" d="M142 1580v148q0 28 18 46t46 18h148q26 0 44 -18q20 -18 20 -46v-148q0 -26 -20 -44q-18 -20 -44 -20h-148q-28 0 -46 20q-18 18 -18 44zM154 64v768l64 368h128l64 -368v-768q0 -26 -20 -44q-18 -20 -44 -20h-128q-28 0 -46 20q-18 18 -18 44z" />
<glyph unicode="&#xa2;" horiz-adv-x="1280" d="M134 320v1024q0 26 18 44q18 20 46 20h384v192q0 26 18 44q18 20 86 20q26 0 44 -20q20 -18 20 -44v-192h344q26 0 44 -20q20 -18 20 -44v-128q0 -28 -20 -46q-18 -18 -44 -18h-344v-640h344q26 0 44 -20q20 -18 20 -44v-128q0 -28 -20 -46q-18 -18 -44 -18h-344v-192 q0 -28 -20 -46q-18 -18 -44 -18q-68 0 -86 18t-18 46v192h-384q-28 0 -46 18t-18 46zM390 512h192v640h-192v-640z" />
<glyph unicode="&#xa3;" horiz-adv-x="1304" d="M134 192v128q0 26 18 44q18 20 46 20h192v428h-192q-28 0 -46 18t-18 86q0 26 18 44q18 20 46 20h192v678q0 52 36 90q38 38 92 38h576q26 0 44 -20q20 -18 20 -44v-384q0 -28 -20 -46q-18 -18 -44 -18h-128q-28 0 -46 18t-18 46v192h-256v-550h192q26 0 44 -20 q20 -18 20 -44q0 -68 -20 -86q-18 -18 -44 -18h-192v-428h256q0 26 18 44q18 20 46 20h128q26 0 44 -20q20 -18 20 -44v-192q0 -28 -20 -46q-18 -18 -44 -18h-896q-28 0 -46 18t-18 46z" />
<glyph unicode="&#xa4;" horiz-adv-x="1440" d="M144 128v128l128 128v896l-128 128v128h192l192 -192h384l192 192h192v-128l-128 -128v-896l128 -128v-128h-192l-192 192h-384l-192 -192h-192zM464 576h512v512h-512v-512z" />
<glyph unicode="&#xa5;" horiz-adv-x="1284" d="M130 1668v62q0 24 18 42t46 18h146l302 -608l302 608h146q26 0 44 -18q20 -18 20 -42v-62l-384 -788v-108h208q20 0 34 -18q14 -16 14 -42t-14 -42q-14 -20 -34 -20h-208v-106h208q20 0 34 -18q14 -16 14 -44q0 -24 -14 -42t-34 -18h-208v-276q0 -28 -20 -44 q-18 -18 -44 -18h-128q-28 0 -46 18q-18 16 -18 44v276h-208q-22 0 -36 18t-14 42q0 28 14 44q14 18 36 18h208v106h-208q-22 0 -36 20q-14 16 -14 42t14 42q14 18 36 18h208v108z" />
<glyph unicode="&#xa8;" horiz-adv-x="1080" d="M146 1582v148q0 26 18 44q18 20 46 20h148q26 0 44 -20q20 -18 20 -44v-148q0 -28 -20 -46q-18 -18 -44 -18h-148q-28 0 -46 18t-18 46zM658 1582v148q0 26 18 44q18 20 46 20h148q26 0 44 -20q20 -18 20 -44v-148q0 -28 -20 -46q-18 -18 -44 -18h-148q-28 0 -46 18 t-18 46z" />
<glyph unicode="&#xa9;" horiz-adv-x="1398" d="M146 776v920q0 38 26 64q26 28 66 28h922q38 0 64 -28q28 -26 28 -64v-920q0 -42 -28 -68q-26 -26 -64 -26h-922q-40 0 -66 26t-26 68zM290 828h818v816h-818v-816zM436 1006v458q0 24 18 40q18 18 46 18h428q12 0 22 -8q10 -10 10 -20v-78q0 -12 -10 -22q-10 -6 -22 -6 h-362v-304h362q12 0 22 -8q10 -10 10 -20v-78q0 -12 -10 -22q-10 -6 -22 -6h-428q-28 0 -46 16t-18 40z" />
<glyph unicode="&#xab;" horiz-adv-x="1306" d="M132 476v712l720 340v-144l-576 -288v-528l576 -288v-144zM400 640v384l768 384v-256l-512 -256v-128l512 -256v-256z" />
<glyph unicode="&#xad;" horiz-adv-x="930" d="M146 768v128q0 26 18 44q18 20 46 20h512q26 0 44 -20q20 -18 20 -44v-128q0 -28 -20 -46q-18 -18 -44 -18h-512q-28 0 -46 18t-18 46z" />
<glyph unicode="&#xae;" horiz-adv-x="1398" d="M146 776v920q0 38 26 64q26 28 66 28h922q38 0 64 -28q28 -26 28 -64v-920q0 -42 -28 -68q-26 -26 -64 -26h-922q-40 0 -66 26t-26 68zM290 828h818v816h-818v-816zM462 978v528q0 8 8 14q10 6 22 6h384q24 0 40 -12q20 -12 20 -30v-242q0 -16 -20 -28q-16 -12 -40 -12 h-296v-224q0 -8 -10 -14q-6 -6 -18 -6h-60q-12 0 -22 6q-8 6 -8 14zM590 1282h216v162h-216v-162zM618 1202h134l184 -202v-22q0 -8 -10 -14t-20 -6h-72z" />
<glyph unicode="&#xb0;" horiz-adv-x="804" d="M146 1324v404q0 26 18 44q18 20 46 20h384q26 0 44 -20q20 -18 20 -44v-404q0 -28 -20 -46q-18 -18 -44 -18h-384q-28 0 -46 18t-18 46zM296 1412h214v232h-214v-232z" />
<glyph unicode="&#xb1;" horiz-adv-x="1156" d="M130 768v128q0 26 18 44q18 20 46 20h256v256q0 26 18 44q18 20 46 20h128q26 0 44 -20q20 -18 20 -44v-256h256q26 0 44 -20q20 -18 20 -44v-128q0 -28 -20 -46q-18 -18 -44 -18h-256v-256q0 -28 -20 -46q-18 -18 -44 -18h-128q-28 0 -46 18t-18 46v256h-256 q-28 0 -46 18t-18 46zM134 90q0 62 18 80t46 18h744q26 0 44 -18q20 -18 20 -80q0 -52 -20 -70q-18 -20 -44 -20h-744q-28 0 -46 20q-18 18 -18 70z" />
<glyph unicode="&#xb4;" horiz-adv-x="576" d="M134 1408v128l128 256h128q28 0 46 -20q18 -18 18 -44v-64l-256 -256h-64z" />
<glyph unicode="&#xb5;" horiz-adv-x="1304" d="M146 -318v1534q0 26 18 44q18 20 46 20h128q26 0 44 -20q20 -18 20 -44v-960h512v960q0 26 18 44q18 20 46 20h128q26 0 44 -20q20 -18 20 -44v-1152q0 -28 -20 -46q-18 -18 -44 -18h-704v-318q0 -26 -20 -44q-18 -20 -44 -20h-128q-28 0 -46 20q-18 18 -18 44z" />
<glyph unicode="&#xb6;" horiz-adv-x="1236" d="M130 1152v384l256 256h704v-1792h-192v1536h-176v-1536h-272v832z" />
<glyph unicode="&#xbb;" horiz-adv-x="1306" d="M138 256v256l512 256v128l-512 256v256l768 -384v-384zM454 136v144l576 288v528l-576 288v144l720 -340v-712z" />
<glyph unicode="&#xbf;" horiz-adv-x="1286" d="M134 64v896q0 28 20 46q18 18 44 18h320v192q0 28 20 46q18 18 44 18h128q28 0 46 -18t18 -46v-384q0 -26 -18 -44q-18 -20 -46 -20h-320v-512h512v192q0 28 20 46q18 18 44 18h128q28 0 46 -18t18 -46v-384q0 -26 -18 -44q-18 -20 -46 -20h-896q-26 0 -44 20 q-20 18 -20 44zM510 1580v148q0 26 18 44q18 20 46 20h148q26 0 44 -20q20 -18 20 -44v-148q0 -28 -20 -46q-18 -18 -44 -18h-148q-28 0 -46 18t-18 46z" />
<glyph unicode="&#xc0;" horiz-adv-x="1300" d="M138 64v1664q0 24 16 44q20 20 48 20h896q24 0 44 -20t20 -44v-1664q0 -28 -20 -48q-20 -16 -44 -16h-128q-28 0 -48 16q-16 20 -16 48v704h-512v-704q0 -28 -20 -48q-20 -16 -44 -16h-128q-28 0 -48 16q-16 20 -16 48zM394 1024h512v512h-512v-512zM458 2176v64 q0 26 18 44q18 20 46 20h128l128 -256v-128h-64z" />
<glyph unicode="&#xc1;" horiz-adv-x="1300" d="M138 64v1664q0 24 16 44q20 20 48 20h896q24 0 44 -20t20 -44v-1664q0 -28 -20 -48q-20 -16 -44 -16h-128q-28 0 -48 16q-16 20 -16 48v704h-512v-704q0 -28 -20 -48q-20 -16 -44 -16h-128q-28 0 -48 16q-16 20 -16 48zM394 1024h512v512h-512v-512zM522 1920v128 l128 256h128q26 0 44 -20q20 -18 20 -44v-64l-256 -256h-64z" />
<glyph unicode="&#xc2;" horiz-adv-x="1304" d="M140 64v1664q0 24 16 44q20 20 48 20h896q24 0 44 -20t20 -44v-1664q0 -28 -20 -48q-20 -16 -44 -16h-128q-28 0 -48 16q-16 20 -16 48v704h-512v-704q0 -28 -20 -48q-20 -16 -44 -16h-128q-28 0 -48 16q-16 20 -16 48zM312 1880l212 424h256l212 -424h-168l-128 236h-88 l-128 -236h-168zM396 1024h512v512h-512v-512z" />
<glyph unicode="&#xc3;" horiz-adv-x="1308" d="M142 64v1664q0 24 16 44q20 20 48 20h896q24 0 44 -20t20 -44v-1664q0 -28 -20 -48q-20 -16 -44 -16h-128q-28 0 -48 16q-16 20 -16 48v704h-512v-704q0 -28 -20 -48q-20 -16 -44 -16h-128q-28 0 -48 16q-16 20 -16 48zM266 1940v196q0 26 18 44q18 20 46 20h468v84 q0 26 18 44q18 20 46 20h108q26 0 44 -20q20 -18 20 -44v-196q0 -28 -20 -46q-18 -18 -44 -18h-468v-84q0 -28 -20 -46q-18 -18 -44 -18h-108q-28 0 -46 18t-18 46zM398 1024h512v512h-512v-512z" />
<glyph unicode="&#xc4;" horiz-adv-x="1308" d="M142 64v1664q0 24 16 44q20 20 48 20h896q24 0 44 -20t20 -44v-1664q0 -28 -20 -48q-20 -16 -44 -16h-128q-28 0 -48 16q-16 20 -16 48v704h-512v-704q0 -28 -20 -48q-20 -16 -44 -16h-128q-28 0 -48 16q-16 20 -16 48zM260 2094v148q0 26 18 44q18 20 46 20h148 q26 0 44 -20q20 -18 20 -44v-148q0 -28 -20 -46q-18 -18 -44 -18h-148q-28 0 -46 18t-18 46zM398 1024h512v512h-512v-512zM772 2094v148q0 26 18 44q18 20 46 20h148q26 0 44 -20q20 -18 20 -44v-148q0 -28 -20 -46q-18 -18 -44 -18h-148q-28 0 -46 18t-18 46z" />
<glyph unicode="&#xc5;" horiz-adv-x="1306" d="M142 64v1664q0 24 16 44q20 20 48 20h308q-46 4 -80 36q-36 38 -36 92v256q0 52 36 90q38 38 92 38h256q52 0 90 -38t38 -90v-256q0 -54 -38 -92q-34 -32 -80 -36h310q24 0 44 -20t20 -44v-1664q0 -28 -20 -48q-20 -16 -44 -16h-128q-28 0 -48 16q-16 20 -16 48v704h-512 v-704q0 -28 -20 -48q-20 -16 -44 -16h-128q-28 0 -48 16q-16 20 -16 48zM398 1024h512v512h-512v-512zM546 1940h216v216h-216v-216z" />
<glyph unicode="&#xc6;" horiz-adv-x="2080" d="M146 64v1664q0 26 18 44q18 20 46 20h1664q26 0 44 -20q20 -18 20 -44v-128q0 -28 -20 -46q-18 -18 -44 -18h-704v-512h576q26 0 44 -20q20 -18 20 -44v-128q0 -28 -20 -46q-18 -18 -44 -18h-576v-512h704q26 0 44 -20q20 -18 20 -44v-128q0 -28 -20 -46q-18 -18 -44 -18 h-896q-28 0 -46 18t-18 46v704h-512v-704q0 -28 -20 -46q-18 -18 -44 -18h-128q-28 0 -46 18t-18 46zM402 1024h512v512h-512v-512z" />
<glyph unicode="&#xc7;" horiz-adv-x="1298" d="M142 128v1536q0 52 36 88q36 40 92 40h832q24 0 44 -20t20 -44v-128q0 -28 -20 -48q-20 -16 -44 -16h-704v-1280h704q24 0 44 -20t20 -44v-128q0 -28 -20 -48q-20 -16 -44 -16h-192v-192q0 -26 -20 -44q-18 -20 -44 -20h-384q-28 0 -46 20q-18 18 -18 44q0 28 18 46 t46 18h192v128h-384q-56 0 -92 36t-36 92z" />
<glyph unicode="&#xc8;" horiz-adv-x="1286" d="M138 64v1664q0 26 18 44q18 20 46 20h896q26 0 44 -20q20 -18 20 -44v-128q0 -28 -20 -46q-18 -18 -44 -18h-704v-512h576q26 0 44 -20q20 -18 20 -44v-128q0 -28 -20 -46q-18 -18 -44 -18h-576v-512h704q26 0 44 -20q20 -18 20 -44v-128q0 -28 -20 -46q-18 -18 -44 -18 h-896q-28 0 -46 18t-18 46zM458 2176v64q0 26 18 44q18 20 46 20h128l128 -256v-128h-64z" />
<glyph unicode="&#xc9;" horiz-adv-x="1286" d="M138 64v1664q0 26 18 44q18 20 46 20h896q26 0 44 -20q20 -18 20 -44v-128q0 -28 -20 -46q-18 -18 -44 -18h-704v-512h576q26 0 44 -20q20 -18 20 -44v-128q0 -28 -20 -46q-18 -18 -44 -18h-576v-512h704q26 0 44 -20q20 -18 20 -44v-128q0 -28 -20 -46q-18 -18 -44 -18 h-896q-28 0 -46 18t-18 46zM522 1920v128l128 256h128q26 0 44 -20q20 -18 20 -44v-64l-256 -256h-64z" />
<glyph unicode="&#xca;" horiz-adv-x="1292" d="M140 64v1664q0 26 18 44q18 20 46 20h896q26 0 44 -20q20 -18 20 -44v-128q0 -28 -20 -46q-18 -18 -44 -18h-704v-512h576q26 0 44 -20q20 -18 20 -44v-128q0 -28 -20 -46q-18 -18 -44 -18h-576v-512h704q26 0 44 -20q20 -18 20 -44v-128q0 -28 -20 -46q-18 -18 -44 -18 h-896q-28 0 -46 18t-18 46zM312 1880l212 424h256l212 -424h-168l-128 236h-88l-128 -236h-168z" />
<glyph unicode="&#xcb;" horiz-adv-x="1290" d="M140 64v1664q0 26 18 44q18 20 46 20h896q26 0 44 -20q20 -18 20 -44v-128q0 -28 -20 -46q-18 -18 -44 -18h-704v-512h576q26 0 44 -20q20 -18 20 -44v-128q0 -28 -20 -46q-18 -18 -44 -18h-576v-512h704q26 0 44 -20q20 -18 20 -44v-128q0 -28 -20 -46q-18 -18 -44 -18 h-896q-28 0 -46 18t-18 46zM268 2112v128q0 26 18 44q18 20 46 20h128q26 0 44 -20q20 -18 20 -44v-128q0 -28 -20 -46q-18 -18 -44 -18h-128q-28 0 -46 18t-18 46zM780 2112v128q0 26 18 44q18 20 46 20h128q26 0 44 -20q20 -18 20 -44v-128q0 -28 -20 -46q-18 -18 -44 -18 h-128q-28 0 -46 18t-18 46z" />
<glyph unicode="&#xcc;" horiz-adv-x="592" d="M128 2176v64q0 26 18 44q18 20 46 20h128l128 -256v-128h-64zM192 64v1664q0 26 18 44q18 20 46 20h128q26 0 44 -20q20 -18 20 -44v-1664q0 -28 -20 -46q-18 -18 -44 -18h-128q-28 0 -46 18t-18 46z" />
<glyph unicode="&#xcd;" horiz-adv-x="592" d="M144 64v1664q0 26 18 44q18 20 46 20h128q26 0 44 -20q20 -18 20 -44v-1664q0 -28 -20 -46q-18 -18 -44 -18h-128q-28 0 -46 18t-18 46zM144 1920v128l128 256h128q26 0 44 -20q20 -18 20 -44v-64l-256 -256h-64z" />
<glyph unicode="&#xce;" horiz-adv-x="928" d="M124 1880l212 424h256l212 -424h-168l-128 236h-88l-128 -236h-168zM336 64v1664q0 26 18 44q18 20 46 20h128q26 0 44 -20q20 -18 20 -44v-1664q0 -28 -20 -46q-18 -18 -44 -18h-128q-28 0 -46 18t-18 46z" />
<glyph unicode="&#xcf;" horiz-adv-x="1028" d="M120 2094v148q0 26 18 44q18 20 46 20h148q26 0 44 -20q20 -18 20 -44v-148q0 -28 -20 -46q-18 -18 -44 -18h-148q-28 0 -46 18t-18 46zM386 64v1664q0 26 18 44q18 20 46 20h128q26 0 44 -20q20 -18 20 -44v-1664q0 -28 -20 -46q-18 -18 -44 -18h-128q-28 0 -46 18 t-18 46zM632 2094v148q0 26 18 44q18 20 46 20h148q26 0 44 -20q20 -18 20 -44v-148q0 -28 -20 -46q-18 -18 -44 -18h-148q-28 0 -46 18t-18 46z" />
<glyph unicode="&#xd1;" horiz-adv-x="1308" d="M142 64v1664q0 24 16 44q20 20 48 20h832q52 0 88 -40q40 -36 40 -88v-1600q0 -28 -20 -48q-20 -16 -44 -16h-128q-28 0 -48 16q-16 20 -16 48v1472h-512v-1472q0 -28 -20 -48q-20 -16 -44 -16h-128q-28 0 -48 16q-16 20 -16 48zM262 1940v196q0 26 18 44q18 20 46 20 h468v84q0 26 18 44q18 20 46 20h108q26 0 44 -20q20 -18 20 -44v-196q0 -28 -20 -46q-18 -18 -44 -18h-468v-84q0 -28 -20 -46q-18 -18 -44 -18h-108q-28 0 -46 18t-18 46z" />
<glyph unicode="&#xd2;" horiz-adv-x="1300" d="M138 128v1536q0 52 36 90q38 38 92 38h768q52 0 90 -38t38 -90v-1536q0 -54 -38 -92q-38 -36 -90 -36h-768q-54 0 -92 36q-36 38 -36 92zM394 256h512v1280h-512v-1280zM458 2176v64q0 26 18 44q18 20 46 20h128l128 -256v-128h-64z" />
<glyph unicode="&#xd3;" horiz-adv-x="1300" d="M138 128v1536q0 52 36 90q38 38 92 38h768q52 0 90 -38t38 -90v-1536q0 -54 -38 -92q-38 -36 -90 -36h-768q-54 0 -92 36q-36 38 -36 92zM394 256h512v1280h-512v-1280zM522 1920v128l128 256h128q26 0 44 -20q20 -18 20 -44v-64l-256 -256h-64z" />
<glyph unicode="&#xd4;" horiz-adv-x="1304" d="M140 128v1536q0 52 36 90q38 38 92 38h768q52 0 90 -38t38 -90v-1536q0 -54 -38 -92q-38 -36 -90 -36h-768q-54 0 -92 36q-36 38 -36 92zM306 1880l212 424h256l212 -424h-168l-128 236h-88l-128 -236h-168zM396 256h512v1280h-512v-1280z" />
<glyph unicode="&#xd5;" horiz-adv-x="1308" d="M142 128v1536q0 52 36 90q38 38 92 38h768q52 0 90 -38t38 -90v-1536q0 -54 -38 -92q-38 -36 -90 -36h-768q-54 0 -92 36q-36 38 -36 92zM266 1940v196q0 26 18 44q18 20 46 20h468v84q0 26 18 44q18 20 46 20h108q26 0 44 -20q20 -18 20 -44v-196q0 -28 -20 -46 q-18 -18 -44 -18h-468v-84q0 -28 -20 -46q-18 -18 -44 -18h-108q-28 0 -46 18t-18 46zM398 256h512v1280h-512v-1280z" />
<glyph unicode="&#xd6;" horiz-adv-x="1308" d="M142 128v1536q0 52 36 90q38 38 92 38h768q52 0 90 -38t38 -90v-1536q0 -54 -38 -92q-38 -36 -90 -36h-768q-54 0 -92 36q-36 38 -36 92zM260 2094v148q0 26 18 44q18 20 46 20h148q26 0 44 -20q20 -18 20 -44v-148q0 -28 -20 -46q-18 -18 -44 -18h-148q-28 0 -46 18 t-18 46zM398 256h512v1280h-512v-1280zM772 2094v148q0 26 18 44q18 20 46 20h148q26 0 44 -20q20 -18 20 -44v-148q0 -28 -20 -46q-18 -18 -44 -18h-148q-28 0 -46 18t-18 46z" />
<glyph unicode="&#xd9;" horiz-adv-x="1300" d="M138 128v1600q0 24 16 44q20 20 48 20h128q24 0 44 -20t20 -44v-1472h512v1472q0 24 16 44q20 20 48 20h128q24 0 44 -20t20 -44v-1600q0 -56 -40 -92q-36 -36 -88 -36h-768q-56 0 -92 36t-36 92zM458 2176v64q0 26 18 44q18 20 46 20h128l128 -256v-128h-64z" />
<glyph unicode="&#xda;" horiz-adv-x="1300" d="M138 128v1600q0 24 16 44q20 20 48 20h128q24 0 44 -20t20 -44v-1472h512v1472q0 24 16 44q20 20 48 20h128q24 0 44 -20t20 -44v-1600q0 -56 -40 -92q-36 -36 -88 -36h-768q-56 0 -92 36t-36 92zM522 1920v128l128 256h128q26 0 44 -20q20 -18 20 -44v-64l-256 -256h-64 z" />
<glyph unicode="&#xdb;" horiz-adv-x="1304" d="M140 128v1600q0 24 16 44q20 20 48 20h128q24 0 44 -20t20 -44v-1472h512v1472q0 24 16 44q20 20 48 20h128q24 0 44 -20t20 -44v-1600q0 -56 -40 -92q-36 -36 -88 -36h-768q-56 0 -92 36t-36 92zM312 1880l212 424h256l212 -424h-168l-128 236h-88l-128 -236h-168z" />
<glyph unicode="&#xdc;" horiz-adv-x="1308" d="M142 128v1600q0 24 16 44q20 20 48 20h128q24 0 44 -20t20 -44v-1472h512v1472q0 24 16 44q20 20 48 20h128q24 0 44 -20t20 -44v-1600q0 -56 -40 -92q-36 -36 -88 -36h-768q-56 0 -92 36t-36 92zM260 2094v148q0 26 18 44q18 20 46 20h148q26 0 44 -20q20 -18 20 -44 v-148q0 -28 -20 -46q-18 -18 -44 -18h-148q-28 0 -46 18t-18 46zM772 2094v148q0 26 18 44q18 20 46 20h148q26 0 44 -20q20 -18 20 -44v-148q0 -28 -20 -46q-18 -18 -44 -18h-148q-28 0 -46 18t-18 46z" />
<glyph unicode="&#xdd;" horiz-adv-x="1262" d="M118 1664v64q0 26 18 44q18 20 46 20h146l302 -640l302 640h146q26 0 44 -20q20 -18 20 -44v-64l-384 -828v-772q0 -28 -20 -46q-18 -18 -44 -18h-128q-28 0 -46 18t-18 46v772zM514 1920v128l128 256h128q26 0 44 -20q20 -18 20 -44v-64l-256 -256h-64z" />
<glyph unicode="&#xe0;" horiz-adv-x="1296" d="M136 128v512q0 52 36 88q36 40 92 40h640v256h-704q-28 0 -48 16q-16 20 -16 48v128q0 24 16 44q20 20 48 20h896q24 0 44 -20t20 -44v-1152q0 -28 -20 -48q-20 -16 -44 -16h-832q-56 0 -92 36t-36 92zM392 256h512v256h-512v-256zM456 1664v64q0 26 18 44q18 20 46 20 h128l128 -256v-128h-64z" />
<glyph unicode="&#xe1;" horiz-adv-x="1296" d="M136 128v512q0 52 36 88q36 40 92 40h640v256h-704q-28 0 -48 16q-16 20 -16 48v128q0 24 16 44q20 20 48 20h896q24 0 44 -20t20 -44v-1152q0 -28 -20 -48q-20 -16 -44 -16h-832q-56 0 -92 36t-36 92zM392 256h512v256h-512v-256zM518 1408v128l128 256h128q26 0 44 -20 q20 -18 20 -44v-64l-256 -256h-64z" />
<glyph unicode="&#xe2;" horiz-adv-x="1302" d="M138 128v512q0 52 36 88q36 40 92 40h640v256h-704q-28 0 -48 16q-16 20 -16 48v128q0 24 16 44q20 20 48 20h896q24 0 44 -20t20 -44v-1152q0 -28 -20 -48q-20 -16 -44 -16h-832q-56 0 -92 36t-36 92zM314 1368l212 424h256l212 -424h-168l-128 236h-88l-128 -236h-168z M394 256h512v256h-512v-256z" />
<glyph unicode="&#xe3;" horiz-adv-x="1304" d="M138 128v512q0 52 36 88q36 40 92 40h640v256h-704q-28 0 -48 16q-16 20 -16 48v128q0 24 16 44q20 20 48 20h896q24 0 44 -20t20 -44v-1152q0 -28 -20 -48q-20 -16 -44 -16h-832q-56 0 -92 36t-36 92zM266 1430v196q0 26 18 44q18 20 46 20h468v84q0 26 18 44 q18 20 46 20h108q26 0 44 -20q20 -18 20 -44v-196q0 -28 -20 -46q-18 -18 -44 -18h-468v-84q0 -28 -20 -46q-18 -18 -44 -18h-108q-28 0 -46 18t-18 46zM394 256h512v256h-512v-256z" />
<glyph unicode="&#xe4;" horiz-adv-x="1308" d="M142 128v512q0 52 36 88q36 40 92 40h640v256h-704q-28 0 -48 16q-16 20 -16 48v128q0 24 16 44q20 20 48 20h896q24 0 44 -20t20 -44v-1152q0 -28 -20 -48q-20 -16 -44 -16h-832q-56 0 -92 36t-36 92zM260 1582v148q0 26 18 44q18 20 46 20h148q26 0 44 -20 q20 -18 20 -44v-148q0 -28 -20 -46q-18 -18 -44 -18h-148q-28 0 -46 18t-18 46zM398 256h512v256h-512v-256zM772 1582v148q0 26 18 44q18 20 46 20h148q26 0 44 -20q20 -18 20 -44v-148q0 -28 -20 -46q-18 -18 -44 -18h-148q-28 0 -46 18t-18 46z" />
<glyph unicode="&#xe5;" horiz-adv-x="1302" d="M138 128v512q0 52 36 88q36 40 92 40h640v256h-704q-28 0 -48 16q-16 20 -16 48v128q0 24 16 44q20 20 48 20h308q-46 4 -80 36q-36 38 -36 92v256q0 52 36 90q38 38 92 38h256q52 0 90 -38t38 -90v-256q0 -54 -38 -92q-34 -32 -80 -36h310q24 0 44 -20t20 -44v-1152 q0 -28 -20 -48q-20 -16 -44 -16h-832q-56 0 -92 36t-36 92zM394 256h512v256h-512v-256zM542 1428h216v216h-216v-216z" />
<glyph unicode="&#xe6;" horiz-adv-x="2084" d="M146 64v640q0 26 18 44q18 20 46 20h704v256h-704q-28 0 -46 18t-18 46v128q0 26 18 44q18 20 46 20h1664q26 0 44 -20q20 -18 20 -44v-640q0 -28 -20 -46q-18 -18 -44 -18h-704v-256h704q26 0 44 -20q20 -18 20 -44v-128q0 -28 -20 -46q-18 -18 -44 -18h-1664 q-28 0 -46 18t-18 46zM402 256h512v256h-512v-256zM1170 768h512v256h-512v-256z" />
<glyph unicode="&#xe7;" horiz-adv-x="1302" d="M142 128v1024q0 52 36 88q36 40 92 40h832q24 0 44 -20t20 -44v-128q0 -28 -20 -48q-20 -16 -44 -16h-704v-768h704q24 0 44 -20t20 -44v-128q0 -28 -20 -48q-20 -16 -44 -16h-192v-192q0 -26 -20 -44q-18 -20 -44 -20h-384q-28 0 -46 20q-18 18 -18 44q0 28 18 46t46 18 h192v128h-384q-56 0 -92 36t-36 92z" />
<glyph unicode="&#xe8;" horiz-adv-x="1296" d="M138 64v1152q0 24 16 44q20 20 48 20h832q52 0 88 -40q40 -36 40 -88v-512q0 -56 -40 -92q-36 -36 -88 -36h-640v-256h704q24 0 44 -20t20 -44v-128q0 -28 -20 -48q-20 -16 -44 -16h-896q-28 0 -48 16q-16 20 -16 48zM394 768h512v256h-512v-256zM458 1664v64q0 26 18 44 q18 20 46 20h128l128 -256v-128h-64z" />
<glyph unicode="&#xe9;" horiz-adv-x="1296" d="M136 64v1152q0 24 16 44q20 20 48 20h832q52 0 88 -40q40 -36 40 -88v-512q0 -56 -40 -92q-36 -36 -88 -36h-640v-256h704q24 0 44 -20t20 -44v-128q0 -28 -20 -48q-20 -16 -44 -16h-896q-28 0 -48 16q-16 20 -16 48zM392 768h512v256h-512v-256zM520 1408v128l128 256 h128q26 0 44 -20q20 -18 20 -44v-64l-256 -256h-64z" />
<glyph unicode="&#xea;" horiz-adv-x="1302" d="M140 64v1152q0 24 16 44q20 20 48 20h832q52 0 88 -40q40 -36 40 -88v-512q0 -56 -40 -92q-36 -36 -88 -36h-640v-256h704q24 0 44 -20t20 -44v-128q0 -28 -20 -48q-20 -16 -44 -16h-896q-28 0 -48 16q-16 20 -16 48zM314 1368l212 424h256l212 -424h-168l-128 236h-88 l-128 -236h-168zM396 768h512v256h-512v-256z" />
<glyph unicode="&#xeb;" horiz-adv-x="1306" d="M142 64v1152q0 24 16 44q20 20 48 20h832q52 0 88 -40q40 -36 40 -88v-512q0 -56 -40 -92q-36 -36 -88 -36h-640v-256h704q24 0 44 -20t20 -44v-128q0 -28 -20 -48q-20 -16 -44 -16h-896q-28 0 -48 16q-16 20 -16 48zM260 1582v148q0 26 18 44q18 20 46 20h148 q26 0 44 -20q20 -18 20 -44v-148q0 -28 -20 -46q-18 -18 -44 -18h-148q-28 0 -46 18t-18 46zM398 768h512v256h-512v-256zM772 1582v148q0 26 18 44q18 20 46 20h148q26 0 44 -20q20 -18 20 -44v-148q0 -28 -20 -46q-18 -18 -44 -18h-148q-28 0 -46 18t-18 46z" />
<glyph unicode="&#xec;" horiz-adv-x="592" d="M130 1664v64q0 26 18 44q18 20 46 20h128l128 -256v-128h-64zM194 64v1152q0 26 18 44q18 20 46 20h128q26 0 44 -20q20 -18 20 -44v-1152q0 -28 -20 -46q-18 -18 -44 -18h-128q-28 0 -46 18t-18 46z" />
<glyph unicode="&#xed;" horiz-adv-x="594" d="M144 64v1152q0 26 18 44q18 20 46 20h128q26 0 44 -20q20 -18 20 -44v-1152q0 -28 -20 -46q-18 -18 -44 -18h-128q-28 0 -46 18t-18 46zM144 1408v128l128 256h128q26 0 44 -20q20 -18 20 -44v-64l-256 -256h-64z" />
<glyph unicode="&#xef;" horiz-adv-x="1044" d="M128 1582v148q0 26 18 44q18 20 46 20h148q26 0 44 -20q20 -18 20 -44v-148q0 -28 -20 -46q-18 -18 -44 -18h-148q-28 0 -46 18t-18 46zM394 64v1152q0 26 18 44q18 20 46 20h128q26 0 44 -20q20 -18 20 -44v-1152q0 -28 -20 -46q-18 -18 -44 -18h-128q-28 0 -46 18 t-18 46zM640 1582v148q0 26 18 44q18 20 46 20h148q26 0 44 -20q20 -18 20 -44v-148q0 -28 -20 -46q-18 -18 -44 -18h-148q-28 0 -46 18t-18 46z" />
<glyph unicode="&#xf1;" horiz-adv-x="1306" d="M140 64v1152q0 24 16 44q20 20 48 20h832q52 0 88 -40q40 -36 40 -88v-1088q0 -28 -20 -48q-20 -16 -44 -16h-128q-28 0 -48 16q-16 20 -16 48v960h-512v-960q0 -28 -20 -48q-20 -16 -44 -16h-128q-28 0 -48 16q-16 20 -16 48zM266 1430v196q0 26 18 44q18 20 46 20h468 v84q0 26 18 44q18 20 46 20h108q26 0 44 -20q20 -18 20 -44v-196q0 -28 -20 -46q-18 -18 -44 -18h-468v-84q0 -28 -20 -46q-18 -18 -44 -18h-108q-28 0 -46 18t-18 46z" />
<glyph unicode="&#xf2;" horiz-adv-x="1298" d="M138 128v1024q0 52 36 88q36 40 92 40h768q52 0 88 -40q40 -36 40 -88v-1024q0 -56 -40 -92q-36 -36 -88 -36h-768q-56 0 -92 36t-36 92zM394 256h512v768h-512v-768zM458 1664v64q0 26 18 44q18 20 46 20h128l128 -256v-128h-64z" />
<glyph unicode="&#xf3;" horiz-adv-x="1298" d="M136 128v1024q0 52 36 88q36 40 92 40h768q52 0 88 -40q40 -36 40 -88v-1024q0 -56 -40 -92q-36 -36 -88 -36h-768q-56 0 -92 36t-36 92zM392 256h512v768h-512v-768zM520 1408v128l128 256h128q26 0 44 -20q20 -18 20 -44v-64l-256 -256h-64z" />
<glyph unicode="&#xf4;" horiz-adv-x="1304" d="M140 128v1024q0 52 36 88q36 40 92 40h768q52 0 88 -40q40 -36 40 -88v-1024q0 -56 -40 -92q-36 -36 -88 -36h-768q-56 0 -92 36t-36 92zM314 1368l212 424h256l212 -424h-168l-128 236h-88l-128 -236h-168zM396 256h512v768h-512v-768z" />
<glyph unicode="&#xf5;" horiz-adv-x="1306" d="M140 128v1024q0 52 36 88q36 40 92 40h768q52 0 88 -40q40 -36 40 -88v-1024q0 -56 -40 -92q-36 -36 -88 -36h-768q-56 0 -92 36t-36 92zM266 1430v196q0 26 18 44q18 20 46 20h468v84q0 26 18 44q18 20 46 20h108q26 0 44 -20q20 -18 20 -44v-196q0 -28 -20 -46 q-18 -18 -44 -18h-468v-84q0 -28 -20 -46q-18 -18 -44 -18h-108q-28 0 -46 18t-18 46zM396 256h512v768h-512v-768z" />
<glyph unicode="&#xf6;" horiz-adv-x="1308" d="M142 128v1024q0 52 36 88q36 40 92 40h768q52 0 88 -40q40 -36 40 -88v-1024q0 -56 -40 -92q-36 -36 -88 -36h-768q-56 0 -92 36t-36 92zM260 1582v148q0 26 18 44q18 20 46 20h148q26 0 44 -20q20 -18 20 -44v-148q0 -28 -20 -46q-18 -18 -44 -18h-148q-28 0 -46 18 t-18 46zM398 256h512v768h-512v-768zM772 1582v148q0 26 18 44q18 20 46 20h148q26 0 44 -20q20 -18 20 -44v-148q0 -28 -20 -46q-18 -18 -44 -18h-148q-28 0 -46 18t-18 46z" />
<glyph unicode="&#xf7;" horiz-adv-x="1240" d="M120 780v104q0 26 18 44q18 20 46 20h872q26 0 44 -20q20 -18 20 -44v-104q0 -28 -20 -46q-18 -18 -44 -18h-872q-28 0 -46 18t-18 46zM482 366v148q0 26 18 44q18 20 46 20h148q26 0 44 -20q20 -18 20 -44v-148q0 -28 -20 -46q-18 -18 -44 -18h-148q-28 0 -46 18t-18 46 zM482 1152v148q0 26 18 44q18 20 46 20h148q26 0 44 -20q20 -18 20 -44v-148q0 -28 -20 -46q-18 -18 -44 -18h-148q-28 0 -46 18t-18 46z" />
<glyph unicode="&#xf9;" horiz-adv-x="1298" d="M138 128v1088q0 24 16 44q20 20 48 20h128q24 0 44 -20t20 -44v-960h512v960q0 24 16 44q20 20 48 20h128q24 0 44 -20t20 -44v-1088q0 -56 -40 -92q-36 -36 -88 -36h-768q-56 0 -92 36t-36 92zM458 1664v64q0 26 18 44q18 20 46 20h128l128 -256v-128h-64z" />
<glyph unicode="&#xfa;" horiz-adv-x="1298" d="M136 128v1088q0 24 16 44q20 20 48 20h128q24 0 44 -20t20 -44v-960h512v960q0 24 16 44q20 20 48 20h128q24 0 44 -20t20 -44v-1088q0 -56 -40 -92q-36 -36 -88 -36h-768q-56 0 -92 36t-36 92zM520 1472v64l128 256h128q26 0 44 -20q20 -18 20 -44v-64l-192 -192v-64 h-64q-28 0 -46 18t-18 46z" />
<glyph unicode="&#xfb;" horiz-adv-x="1304" d="M140 128v1088q0 24 16 44q20 20 48 20h128q24 0 44 -20t20 -44v-960h512v960q0 24 16 44q20 20 48 20h128q24 0 44 -20t20 -44v-1088q0 -56 -40 -92q-36 -36 -88 -36h-768q-56 0 -92 36t-36 92zM314 1368l212 424h256l212 -424h-168l-128 236h-88l-128 -236h-168z" />
<glyph unicode="&#xfc;" horiz-adv-x="1308" d="M142 128v1088q0 24 16 44q20 20 48 20h128q24 0 44 -20t20 -44v-960h512v960q0 24 16 44q20 20 48 20h128q24 0 44 -20t20 -44v-1088q0 -56 -40 -92q-36 -36 -88 -36h-768q-56 0 -92 36t-36 92zM260 1582v148q0 26 18 44q18 20 46 20h148q26 0 44 -20q20 -18 20 -44v-148 q0 -28 -20 -46q-18 -18 -44 -18h-148q-28 0 -46 18t-18 46zM772 1582v148q0 26 18 44q18 20 46 20h148q26 0 44 -20q20 -18 20 -44v-148q0 -28 -20 -46q-18 -18 -44 -18h-148q-28 0 -46 18t-18 46z" />
<glyph unicode="&#xfd;" horiz-adv-x="1296" d="M134 -192q0 28 16 48q20 16 48 16h704v256h-640q-56 0 -92 36t-36 92v960q0 24 16 44q20 20 48 20h128q24 0 44 -20t20 -44v-832h512v832q0 24 16 44q20 20 48 20h128q24 0 44 -20t20 -44v-1536q0 -24 -20 -44t-44 -20h-896q-28 0 -48 20q-16 20 -16 44v128zM518 1408 v128l128 256h128q26 0 44 -20q20 -18 20 -44v-64l-256 -256h-64z" />
<glyph unicode="&#xff;" horiz-adv-x="1306" d="M140 -192q0 28 16 48q20 16 48 16h704v256h-640q-56 0 -92 36t-36 92v960q0 24 16 44q20 20 48 20h128q24 0 44 -20t20 -44v-832h512v832q0 24 16 44q20 20 48 20h128q24 0 44 -20t20 -44v-1536q0 -24 -20 -44t-44 -20h-896q-28 0 -48 20q-16 20 -16 44v128zM258 1582 v148q0 26 18 44q18 20 46 20h148q26 0 44 -20q20 -18 20 -44v-148q0 -28 -20 -46q-18 -18 -44 -18h-148q-28 0 -46 18t-18 46zM770 1582v148q0 26 18 44q18 20 46 20h148q26 0 44 -20q20 -18 20 -44v-148q0 -28 -20 -46q-18 -18 -44 -18h-148q-28 0 -46 18t-18 46z" />
<glyph unicode="&#x152;" horiz-adv-x="2080" d="M146 128v1536q0 52 36 90q38 38 92 38h1600q26 0 44 -20q20 -18 20 -44v-128q0 -28 -20 -46q-18 -18 -44 -18h-704v-512h576q26 0 44 -20q20 -18 20 -44v-128q0 -28 -20 -46q-18 -18 -44 -18h-576v-512h704q26 0 44 -20q20 -18 20 -44v-128q0 -28 -20 -46 q-18 -18 -44 -18h-1600q-54 0 -92 36q-36 38 -36 92zM402 256h512v1280h-512v-1280z" />
<glyph unicode="&#x153;" horiz-adv-x="2084" d="M146 64v1152q0 26 18 44q18 20 46 20h1664q26 0 44 -20q20 -18 20 -44v-640q0 -28 -20 -46q-18 -18 -44 -18h-704v-256h704q26 0 44 -20q20 -18 20 -44v-128q0 -28 -20 -46q-18 -18 -44 -18h-1664q-28 0 -46 18t-18 46zM402 256h512v768h-512v-768zM1170 768h512v256 h-512v-256z" />
<glyph unicode="&#x178;" horiz-adv-x="1268" d="M122 1664v64q0 26 18 44q18 20 46 20h146l302 -640l302 640h146q26 0 44 -20q20 -18 20 -44v-64l-384 -828v-772q0 -28 -20 -46q-18 -18 -44 -18h-128q-28 0 -46 18t-18 46v772zM262 2110v128q0 26 18 44q18 20 46 20h128q26 0 44 -20q20 -18 20 -44v-128q0 -28 -20 -46 q-18 -18 -44 -18h-128q-28 0 -46 18t-18 46zM774 2110v128q0 26 18 44q18 20 46 20h128q26 0 44 -20q20 -18 20 -44v-128q0 -28 -20 -46q-18 -18 -44 -18h-128q-28 0 -46 18t-18 46z" />
<glyph unicode="&#x2000;" horiz-adv-x="1174" />
<glyph unicode="&#x2001;" horiz-adv-x="2348" />
<glyph unicode="&#x2002;" horiz-adv-x="1174" />
<glyph unicode="&#x2003;" horiz-adv-x="2348" />
<glyph unicode="&#x2004;" horiz-adv-x="782" />
<glyph unicode="&#x2005;" horiz-adv-x="587" />
<glyph unicode="&#x2006;" horiz-adv-x="391" />
<glyph unicode="&#x2007;" horiz-adv-x="391" />
<glyph unicode="&#x2008;" horiz-adv-x="293" />
<glyph unicode="&#x2009;" horiz-adv-x="469" />
<glyph unicode="&#x200a;" horiz-adv-x="130" />
<glyph unicode="&#x2010;" horiz-adv-x="930" d="M146 768v128q0 26 18 44q18 20 46 20h512q26 0 44 -20q20 -18 20 -44v-128q0 -28 -20 -46q-18 -18 -44 -18h-512q-28 0 -46 18t-18 46z" />
<glyph unicode="&#x2011;" horiz-adv-x="930" d="M146 768v128q0 26 18 44q18 20 46 20h512q26 0 44 -20q20 -18 20 -44v-128q0 -28 -20 -46q-18 -18 -44 -18h-512q-28 0 -46 18t-18 46z" />
<glyph unicode="&#x2012;" horiz-adv-x="930" d="M146 768v128q0 26 18 44q18 20 46 20h512q26 0 44 -20q20 -18 20 -44v-128q0 -28 -20 -46q-18 -18 -44 -18h-512q-28 0 -46 18t-18 46z" />
<glyph unicode="&#x2013;" horiz-adv-x="1314" d="M146 768v128q0 26 18 44q18 20 46 20h894q26 0 44 -20q20 -18 20 -44v-128q0 -28 -20 -46q-18 -18 -44 -18h-894q-28 0 -46 18t-18 46z" />
<glyph unicode="&#x2014;" horiz-adv-x="1572" d="M146 768v128q0 26 18 44q18 20 46 20h1152q26 0 44 -20q20 -18 20 -44v-128q0 -28 -20 -46q-18 -18 -44 -18h-1152q-28 0 -46 18t-18 46z" />
<glyph unicode="&#x2018;" horiz-adv-x="620" d="M146 1344v384q0 28 20 46q18 18 44 18h104q28 0 46 -18t18 -46v-192h44q28 0 46 -18t18 -46v-128q0 -26 -18 -44q-18 -20 -46 -20h-212q-26 0 -44 20q-20 18 -20 44z" />
<glyph unicode="&#x2019;" horiz-adv-x="616" d="M132 1600v128q0 26 18 44q18 20 46 20h212q26 0 44 -20q20 -18 20 -44v-384q0 -28 -20 -46q-18 -18 -44 -18h-104q-28 0 -46 18t-18 46v192h-44q-28 0 -46 18t-18 46z" />
<glyph unicode="&#x201c;" horiz-adv-x="1050" d="M146 1344v384q0 28 20 46q18 18 44 18h104q28 0 46 -18t18 -46v-192h44q28 0 46 -18t18 -46v-128q0 -26 -18 -44q-18 -20 -46 -20h-212q-26 0 -44 20q-20 18 -20 44zM570 1344v384q0 28 20 46q18 18 44 18h104q28 0 46 -18t18 -46v-192h44q28 0 46 -18t18 -46v-128 q0 -26 -18 -44q-18 -20 -46 -20h-212q-26 0 -44 20q-20 18 -20 44z" />
<glyph unicode="&#x201d;" horiz-adv-x="1050" d="M140 1600v128q0 26 18 44q18 20 46 20h212q26 0 44 -20q20 -18 20 -44v-384q0 -28 -20 -46q-18 -18 -44 -18h-104q-28 0 -46 18t-18 46v192h-44q-28 0 -46 18t-18 46zM564 1600v128q0 26 18 44q18 20 46 20h212q26 0 44 -20q20 -18 20 -44v-384q0 -28 -20 -46 q-18 -18 -44 -18h-104q-28 0 -46 18t-18 46v192h-44q-28 0 -46 18t-18 46z" />
<glyph unicode="&#x2022;" horiz-adv-x="674" d="M146 704v256q0 26 18 44q18 20 46 20h256q26 0 44 -20q20 -18 20 -44v-256q0 -28 -20 -46q-18 -18 -44 -18h-256q-28 0 -46 18t-18 46z" />
<glyph unicode="&#x202f;" horiz-adv-x="469" />
<glyph unicode="&#x2039;" horiz-adv-x="1032" d="M118 640v384l768 384v-256l-512 -256v-128l512 -256v-256z" />
<glyph unicode="&#x203a;" horiz-adv-x="1032" d="M146 256v256l512 256v128l-512 256v256l768 -384v-384z" />
<glyph unicode="&#x205f;" horiz-adv-x="587" />
<glyph unicode="&#x20ac;" horiz-adv-x="1176" d="M134 770q0 26 18 44q18 20 46 20h64v248h-64q-28 0 -46 18t-18 46q0 26 18 44q18 20 46 20h64v448q0 52 36 90q38 38 92 38h576q26 0 44 -20q20 -18 20 -44v-256q0 -28 -20 -46q-18 -18 -44 -18h-128q-28 0 -46 18t-18 46v64h-256v-320h192q26 0 44 -20q20 -18 20 -44 q0 -28 -20 -46q-18 -18 -44 -18h-192v-248h192q26 0 44 -20q20 -18 20 -44q0 -28 -20 -46q-18 -18 -44 -18h-192v-320h256v64q0 26 18 44q18 20 46 20h128q26 0 44 -20q20 -18 20 -44v-192q0 -54 -38 -92q-38 -36 -90 -36h-576q-28 0 -46 18t-18 46v512h-64q-28 0 -46 18 t-18 46z" />
<glyph unicode="&#x2122;" horiz-adv-x="1794" d="M138 1670v80q0 18 10 26q12 14 30 14h544q16 0 26 -14q12 -8 12 -26v-80q0 -14 -12 -70q-10 -10 -26 -10h-186v-816q0 -14 -14 -26q-8 -10 -26 -10h-92q-18 0 -32 10q-8 12 -8 26v816h-186q-18 0 -30 10q-10 56 -10 70zM866 774v976q0 18 14 26q8 14 26 14h702 q18 0 28 -14q12 -8 12 -26v-976q0 -14 -12 -26q-10 -10 -28 -10h-118q-18 0 -32 10q-8 12 -8 26v816h-116v-388q0 -14 -8 -26q-14 -10 -26 -10h-80q-18 0 -30 10q-10 12 -10 26v388h-110v-816q0 -14 -14 -26q-12 -10 -26 -10h-124q-18 0 -26 10q-14 12 -14 26z" />
<glyph unicode="&#xe000;" horiz-adv-x="1280" d="M0 0v1280h1280v-1280h-1280z" />
</font>
</defs>
</svg>
